# xmcd
#
# Track frame offsets: 
#        150
#        15651
#        31375
#        43359
#        57471
#        69453
#        83045
#        100436
#        113284
#        124600
#        138778
#        156275
#
# Disc length: 2297 seconds
#
# Revision: 0
# Processed by: cddbd v1.5.2PL0 Copyright (c) Steve Scherf et al.
# Submitted via: ExactAudioCopy v1.0b4
#
DISCID=9a08f70c
DTITLE=Georgia Blues Dawgs - Blues Rock City Jam
DYEAR=2011
DGENRE=Blues Rock
TTITLE0=I Can't Refuse
TTITLE1=You Should Be Ashamed
TTITLE2=True Blue
TTITLE3=Don't Be Cruel
TTITLE4=Sweet Darlene
TTITLE5=Down On My Knees
TTITLE6=Racing Back To Mississippi
TTITLE7=Define Your Terms
TTITLE8=Let Me Love You
TTITLE9=Lies
TTITLE10=Knocking At Your Door
TTITLE11=I Languish For You
EXTD=
EXTT0=
EXTT1=
EXTT2=
EXTT3=
EXTT4=
EXTT5=
EXTT6=
EXTT7=
EXTT8=
EXTT9=
EXTT10=
EXTT11=
PLAYORDER=
